<svg xmlns="http://www.w3.org/2000/svg" xmlns:xlink="http://www.w3.org/1999/xlink" width="56.313" height="32" class="icon" p-id="25650" t="1646316548189" version="1.1" viewBox="0 0 1802 1024"><defs><style type="text/css"/></defs><path fill="#2873AA" d="M901.12 0C385.024 0 4.096 339.968 0 512 4.096 684.032 385.024 1024 901.12 1024s897.024-339.968 901.12-512C1798.144 339.968 1417.216 0 901.12 0z m-28.672 929.792c-225.28-8.192-401.408-192.512-401.408-417.792 4.096-233.472 196.608-421.888 430.08-417.792 229.376 8.192 409.6 200.704 401.408 430.08s-200.704 413.696-430.08 405.504z" p-id="25651"/><path fill="#2873AA" d="M901.12 241.664c151.552 4.096 266.24 131.072 262.144 282.624-4.096 151.552-131.072 266.24-282.624 262.144-147.456-4.096-262.144-126.976-262.144-270.336 4.096-155.648 131.072-278.528 282.624-274.432z" p-id="25652"/></svg>