<svg xmlns="http://www.w3.org/2000/svg" xmlns:xlink="http://www.w3.org/1999/xlink" width="32" height="32" class="icon" p-id="6445" t="1646229700985" version="1.1" viewBox="0 0 1024 1024"><defs><style type="text/css"/></defs><path d="M733.866667 375.466667h-443.733334c-10.24 0-17.066667-6.826667-17.066666-17.066667s6.826667-17.066667 17.066666-17.066667h443.733334c10.24 0 17.066667 6.826667 17.066666 17.066667s-6.826667 17.066667-17.066666 17.066667zM733.866667 238.933333h-204.8c-10.24 0-17.066667-6.826667-17.066667-17.066666s6.826667-17.066667 17.066667-17.066667h204.8c10.24 0 17.066667 6.826667 17.066666 17.066667s-6.826667 17.066667-17.066666 17.066666z" p-id="6446"/><path d="M870.4 1024h-716.8c-10.24 0-17.066667-6.826667-17.066667-17.066667v-716.8c0-3.413333 3.413333-10.24 3.413334-13.653333l273.066666-273.066667c3.413333 0 10.24-3.413333 13.653334-3.413333h443.733333c10.24 0 17.066667 6.826667 17.066667 17.066667v989.866666c0 10.24-6.826667 17.066667-17.066667 17.066667zM170.666667 989.866667h682.666666V34.133333H433.493333L170.666667 296.96V989.866667z" p-id="6447"/><path d="M426.666667 307.2h-273.066667c-10.24 0-17.066667-6.826667-17.066667-17.066667s6.826667-17.066667 17.066667-17.066666H409.6V17.066667c0-10.24 6.826667-17.066667 17.066667-17.066667s17.066667 6.826667 17.066666 17.066667v273.066666c0 10.24-6.826667 17.066667-17.066666 17.066667zM733.866667 512h-443.733334c-10.24 0-17.066667-6.826667-17.066666-17.066667s6.826667-17.066667 17.066666-17.066666h443.733334c10.24 0 17.066667 6.826667 17.066666 17.066666s-6.826667 17.066667-17.066666 17.066667zM733.866667 648.533333h-443.733334c-10.24 0-17.066667-6.826667-17.066666-17.066666s6.826667-17.066667 17.066666-17.066667h443.733334c10.24 0 17.066667 6.826667 17.066666 17.066667s-6.826667 17.066667-17.066666 17.066666zM733.866667 785.066667h-443.733334c-10.24 0-17.066667-6.826667-17.066666-17.066667s6.826667-17.066667 17.066666-17.066667h443.733334c10.24 0 17.066667 6.826667 17.066666 17.066667s-6.826667 17.066667-17.066666 17.066667z" p-id="6448"/><path d="M733.866667 921.6h-443.733334c-10.24 0-17.066667-6.826667-17.066666-17.066667s6.826667-17.066667 17.066666-17.066666h443.733334c10.24 0 17.066667 6.826667 17.066666 17.066666s-6.826667 17.066667-17.066666 17.066667z" p-id="6449"/></svg>