<svg xmlns="http://www.w3.org/2000/svg" xmlns:xlink="http://www.w3.org/1999/xlink" width="32" height="32" class="icon" p-id="37293" t="1646234343800" version="1.1" viewBox="0 0 1024 1024"><defs><style type="text/css"/></defs><path fill="#CCE4FF" d="M682.048504 42.669354v256h255.088882v-64.004031L745.826772 42.669354zM682.048504 917.326614l85.032315-149.326614-85.024252-149.326614H341.943433L256.919181 768l85.024252 149.326614z" p-id="37294"/><path fill="#007AFF" d="M624.043339 933.210709l73.832818 42.338771L816.055433 768 697.876157 560.45052l-73.832818 42.338771 94.062866 165.210709zM207.936504 768l118.187339 207.54948 73.832818-42.338771-94.062866-165.210709 94.062866-165.210709-73.832818-42.338771z" p-id="37295"/><path fill="#007AFF" d="M724.572724 0H44.346457v1024h85.024252V85.330646h510.1697v256h255.088882V1024H979.653543V216.975118L763.452472 0h-38.879748z m170.048504 256h-170.048504V85.330646h3.628347l166.420157 167.024882v3.644472z" p-id="37296"/><path fill="#007AFF" d="M384.459591 725.330646h85.024252v85.338708H384.459591zM554.516157 725.330646h85.024252v85.338708H554.516157z" p-id="37297"/></svg>