<svg xmlns="http://www.w3.org/2000/svg" xmlns:xlink="http://www.w3.org/1999/xlink" width="32" height="32" class="icon" p-id="2036" t="1645972897998" version="1.1" viewBox="0 0 1024 1024"><defs><style type="text/css"/></defs><path fill="#EDD87E" d="M1024 960a64 64 0 0 1-64 64H64a64 64 0 0 1-64-64V320a64 64 0 0 1 64-64h896a64 64 0 0 1 64 64v640z" p-id="2037"/><path fill="#434854" d="M960 128H512V64a64 64 0 0 0-64-64H64a64 64 0 0 0-64 64v256a64 64 0 0 1 64-64h896a64 64 0 0 1 64 64V192a64 64 0 0 0-64-64z" p-id="2038"/><path d="M960 224H64a64 64 0 0 0-64 64v32a64 64 0 0 1 64-64h896a64 64 0 0 1 64 64V288a64 64 0 0 0-64-64z" p-id="2039"/><path fill="#EAEAEA" d="M128 192h768v64H128z" p-id="2040"/><path d="M749.312 471.808c-24.544-24.512-70.624-18.112-95.136 6.368l-202.304 202.304-88.736-88.736a62.784 62.784 0 0 0-88.768 88.736l133.152 133.152a62.784 62.784 0 0 0 88.736 0l255.264-251.232c24.448-24.448 22.272-66.08-2.208-90.592z" p-id="2041"/></svg>