<svg xmlns="http://www.w3.org/2000/svg" xmlns:xlink="http://www.w3.org/1999/xlink" width="32" height="32" class="icon" p-id="9043" t="1646317731904" version="1.1" viewBox="0 0 1024 1024"><defs><style type="text/css"/></defs><path fill="#B3B7C0" d="M512 256.5C226.7 256.5 75.4 527 75.4 527S238.8 767.5 512 767.5c273.2 0 436.6-240.5 436.6-240.5S814.4 256.5 512 256.5z m0 456.3c-215.9 0-345-190-345-190S286.5 309 512 309c239 0 345 213.8 345 213.8s-129.1 190-345 190z" p-id="9044"/><path fill="#B3B7C0" d="M357.5 512.7c0 84.6 69.2 153.2 154.5 153.2s154.5-68.6 154.5-153.2S597.3 359.5 512 359.5s-154.5 68.6-154.5 153.2z" p-id="9045"/><path fill="#B3B7C0" d="M0 0v1024h1024V0H0z m959.8 959.8H64.2V64.2h895.6v895.6z" p-id="9046"/><path fill="#86B2F9" d="M512.1 586.3s-0.1 0.1 0 0c-38.2 0-69.1-30.6-69.1-68.4 0-37.8 30.9-68.4 69-68.4h0.1v-91c-86.9 0.1-157.4 68.9-157.4 153.7 0 84.8 70.4 153.6 157.4 153.7v-79.6z" p-id="9047"/><path fill="#86B2F9" d="M513 767.5h-1C238.8 767.5 75.4 527 75.4 527S226.7 256.5 512 256.5h1V0H0v1024h513V767.5z" p-id="9048"/><path fill="#FFF" d="M443 518c0 37.8 30.9 68.4 69 68.4h0.1V449.6h-0.1c-38.1 0-69 30.6-69 68.4z m138.2 0c0 37.8-30.9 68.4-69 68.4h-0.1V449.6h0.1c38.1 0 69 30.6 69 68.4z" p-id="9049"/><path fill="#FFF" d="M512.1 665.9c-86.9-0.1-157.4-68.9-157.4-153.7 0-84.8 70.4-153.6 157.4-153.7v-102h-0.1C226.7 256.5 75.4 527 75.4 527S238.8 767.5 512 767.5h0.1V665.9z" p-id="9050"/></svg>