<svg xmlns="http://www.w3.org/2000/svg" xmlns:xlink="http://www.w3.org/1999/xlink" width="32" height="32" class="icon" p-id="16627" t="1646315558583" version="1.1" viewBox="0 0 1024 1024"><defs><style type="text/css"/></defs><path fill="#E64026" d="M512 955.733333A443.733333 443.733333 0 1 1 512 68.010667 443.733333 443.733333 0 0 1 512 955.733333M512 0a512 512 0 1 0 0 1024A512 512 0 0 0 512 0" p-id="16628"/><path fill="#E64026" d="M751.957333 475.818667H266.752s-40.106667-3.669333-40.106667 28.928c0 43.776 17.237333 43.690667 31.573334 43.690666h493.824c9.216 0 44.8 2.56 45.226666-37.973333 0.512-40.533333-45.312-34.645333-45.312-34.645333" p-id="16629"/></svg>